HIERARCHY
ROOT Pelvis
{
	OFFSET 0.000000 0.000000 0.000000
	CHANNELS 6 Xposition Yposition Zposition Xrotation Yrotation Zrotation
	JOINT LeftUpLeg_virtual
	{
		OFFSET 0.000000 0.000000 0.000000
		CHANNELS 3 Xrotation Yrotation Zrotation
		JOINT LeftUpLeg
		{
			OFFSET 18.735201 -5.666702 -4.541200
			CHANNELS 3 Xrotation Yrotation Zrotation
			JOINT LeftLeg
			{
				OFFSET -0.021200 -31.938179 0.493100
				CHANNELS 3 Xrotation Yrotation Zrotation
				JOINT LeftFoot
				{
					OFFSET 0.021200 -31.938179 -4.336299
					CHANNELS 3 Xrotation Yrotation Zrotation
					JOINT LeftToeBase
					{
						OFFSET 0.943001 -26.722000 15.023500
						CHANNELS 3 Xrotation Yrotation Zrotation
						End Site
						{
							OFFSET 0 0 0
						}
					}
				}
			}
		}
	}
	JOINT RightUpLeg_virtual
	{
		OFFSET 0.000000 0.000000 0.000000
		CHANNELS 3 Xrotation Yrotation Zrotation
		JOINT RightUpLeg
		{
			OFFSET -18.735201 -5.666702 -4.541200
			CHANNELS 3 Xrotation Yrotation Zrotation
			JOINT RightLeg
			{
				OFFSET 0.018946 -31.938133 0.493100
				CHANNELS 3 Xrotation Yrotation Zrotation
				JOINT RightFoot
				{
					OFFSET -0.018946 -31.938126 -4.336299
					CHANNELS 3 Xrotation Yrotation Zrotation
					JOINT RightToeBase
					{
						OFFSET -0.943001 -26.722004 15.023500
						CHANNELS 3 Xrotation Yrotation Zrotation
						End Site
						{
							OFFSET 0 0 0
						}
					}
				}
			}
		}
	}
	JOINT Hips_virtual
	{
		OFFSET 0.000000 0.000000 0.000000
		CHANNELS 3 Xrotation Yrotation Zrotation
		JOINT Hips
		{
			OFFSET -0.000000 -0.000000 -0.000000
			CHANNELS 3 Xrotation Yrotation Zrotation
			JOINT Spine
			{
				OFFSET 0.000000 10.199997 -0.299500
				CHANNELS 3 Xrotation Yrotation Zrotation
				JOINT Spine1
				{
					OFFSET 0.000000 11.900002 -1.516600
					CHANNELS 3 Xrotation Yrotation Zrotation
					JOINT Spine2
					{
						OFFSET 0.000000 13.600006 -2.842500
						CHANNELS 3 Xrotation Yrotation Zrotation
						JOINT Neck_virtual
						{
							OFFSET 0.000000 0.000000 0.000000
							CHANNELS 3 Xrotation Yrotation Zrotation
							JOINT Neck
							{
								OFFSET 0.000000 9.624100 -2.890100
								CHANNELS 3 Xrotation Yrotation Zrotation
								JOINT Head
								{
									OFFSET 0.000000 14.068802 -1.351900
									CHANNELS 3 Xrotation Yrotation Zrotation
									End Site
									{
										OFFSET 0 0 0
									}
								}
							}
						}
						JOINT LeftShoulder_virtual
						{
							OFFSET 0.000000 0.000000 0.000000
							CHANNELS 3 Xrotation Yrotation Zrotation
							JOINT LeftShoulder
							{
								OFFSET 15.263000 10.923401 -0.547700
								CHANNELS 3 Xrotation Yrotation Zrotation
								JOINT LeftArm
								{
									OFFSET 25.438599 -2.830597 -13.032500
									CHANNELS 3 Xrotation Yrotation Zrotation
									JOINT LeftForeArm
									{
										OFFSET 29.960503 0.000000 0.000000
										CHANNELS 3 Xrotation Yrotation Zrotation
										JOINT LeftHand
										{
											OFFSET 27.849251 0.000000 0.000000
											CHANNELS 3 Xrotation Yrotation Zrotation
											End Site
											{
												OFFSET 0 0 0
											}
										}
									}
								}
							}
						}
						JOINT RightShoulder_virtual
						{
							OFFSET 0.000000 0.000000 0.000000
							CHANNELS 3 Xrotation Yrotation Zrotation
							JOINT RightShoulder
							{
								OFFSET -15.263000 10.923401 -0.547700
								CHANNELS 3 Xrotation Yrotation Zrotation
								JOINT RightArm
								{
									OFFSET -25.438599 -2.830597 -13.032500
									CHANNELS 3 Xrotation Yrotation Zrotation
									JOINT RightForeArm
									{
										OFFSET -29.960503 0.000000 0.000000
										CHANNELS 3 Xrotation Yrotation Zrotation
										JOINT RightHand
										{
											OFFSET -27.849251 0.000000 0.000000
											CHANNELS 3 Xrotation Yrotation Zrotation
											End Site
											{
												OFFSET 0 0 0
											}
										}
									}
								}
							}
						}
					}
				}
			}
		}
	}
}
MOTION
Frames: 9
Frame Time: 0.03333333
0.164195 14.197624 4.592955 0.000000 0.000000 0.000000 -41.002442 -2.845418 -13.202897 -86.548626 7.342262 9.141001 39.236039 1.244032 -1.652498 -10.127277 1.978221 -6.846595 0.000000 0.000000 0.000000 -34.612745 8.284045 7.510330 -72.502472 1.114566 -9.197526 36.189832 -4.354574 8.898147 -12.829882 -12.522578 22.753343 0.000000 0.000000 0.000000 -22.494407 -7.993238 1.015820 -75.870370 5.500537 14.461995 -0.951293 0.605006 -0.636609 -2.195282 0.479750 -0.497027 0.000000 0.000000 0.000000 1.731986 0.266131 0.029069 -1.280330 0.554793 -0.272788 0.000000 0.000000 0.000000 0.699014 -0.107163 0.426430 -1.063144 -5.528516 -5.271947 -13.646034 -29.064135 -65.815935 -0.206142 -83.108690 -8.158618 0.000000 0.000000 0.000000 0.276895 0.045209 -0.397474 -1.685193 5.194976 4.268464 -1.726245 23.727054 59.024077 153.925485 86.069256 -146.577922 0.000000 0.000000 0.000000 
-1.320636 14.788780 6.205170 0.000000 0.000000 0.000000 -42.466667 -2.167170 -12.456510 -87.833897 6.977838 9.493989 39.679444 1.950958 -1.539490 -9.005373 2.613683 -6.285294 0.000000 0.000000 0.000000 -35.018049 7.143618 6.498604 -73.025282 1.221627 -9.785695 36.073408 -5.825539 10.052075 -12.775668 -14.444347 23.525449 0.000000 0.000000 0.000000 -23.945608 -9.756702 0.401854 -74.649719 6.200065 16.217608 -0.247150 0.434978 -1.461747 -1.782337 0.699816 -0.551299 0.000000 0.000000 0.000000 1.698399 0.044035 -0.143170 -1.244766 0.573914 -0.242992 0.000000 0.000000 0.000000 -0.344565 -0.341463 0.657895 -0.966659 -4.931790 -4.539759 -13.764316 -27.974512 -69.215634 0.073998 -84.591435 -9.266291 0.000000 0.000000 0.000000 -0.125807 0.086631 -0.528952 -1.607022 4.725694 4.852463 -1.733941 24.384831 58.093662 171.801743 81.073546 -164.986307 0.000000 0.000000 0.000000 
-2.451249 16.797688 4.253651 0.000000 0.000000 0.000000 -42.687695 -5.055681 -15.935074 -87.554610 7.786916 7.485497 39.141844 2.363492 -0.863633 -9.164726 2.736904 -5.005077 0.000000 0.000000 0.000000 -34.301668 4.808275 6.006386 -72.459933 0.591035 -9.950379 32.833440 -7.124286 10.383162 -14.776066 -16.036203 23.333690 0.000000 0.000000 0.000000 -21.504898 -9.780368 1.247637 -76.557302 10.497383 14.965645 0.675946 -0.160720 -1.608341 -2.269569 0.400391 -0.118163 0.000000 0.000000 0.000000 1.520814 -0.429003 -0.043974 -1.467053 0.463659 -0.206705 0.000000 0.000000 0.000000 -0.971548 -0.415114 0.942062 -1.384016 -6.055027 -4.188214 -17.770977 -26.109605 -70.101018 -6.461401 -84.590390 -14.915714 0.000000 0.000000 0.000000 -0.291611 0.179336 -0.574861 -1.231292 4.043865 5.097110 0.433568 23.183904 58.510317 173.209718 79.867465 -166.606168 0.000000 0.000000 0.000000 
-1.882162 17.626740 5.262102 0.000000 0.000000 0.000000 -43.610645 -4.695281 -14.165554 -88.616589 6.777793 8.957867 40.702880 2.783088 -0.670527 -7.715731 3.027314 -4.428864 0.000000 0.000000 0.000000 -34.074345 3.944669 4.676932 -72.251694 0.878804 -10.844903 32.400734 -7.175077 10.286526 -14.913387 -16.089074 23.209932 0.000000 0.000000 0.000000 -22.989800 -10.164029 0.582973 -72.516583 9.080597 13.488858 0.450177 -0.466502 -1.368530 -1.745430 0.801465 -0.509609 0.000000 0.000000 0.000000 1.906242 -0.533037 -0.037810 -1.379476 0.419514 -0.208244 0.000000 0.000000 0.000000 -0.506899 -0.602771 0.667609 -1.627831 -6.186431 -4.292551 -17.062373 -26.620884 -71.634751 -13.764198 -85.714810 -22.697764 0.000000 0.000000 0.000000 0.341308 0.493703 -0.751547 -1.112236 4.439310 5.667831 -0.328657 23.170389 57.365878 174.180438 78.683561 -168.022285 0.000000 0.000000 0.000000 
-2.408709 16.868824 5.040897 0.000000 0.000000 0.000000 -43.956307 -5.684930 -13.752092 -88.815709 6.143410 9.380800 41.102391 2.709792 -0.708460 -7.282531 2.961879 -4.545835 0.000000 0.000000 0.000000 -35.694476 4.605071 4.883902 -73.840690 1.187531 -10.780728 34.573608 -6.284623 11.116482 -13.261277 -15.451208 24.964674 0.000000 0.000000 0.000000 -22.187251 -8.244930 1.188296 -74.627583 10.027616 15.392198 2.586474 -0.285662 -1.666377 -1.387670 0.731704 -0.243226 0.000000 0.000000 0.000000 2.558319 -0.672871 -0.045878 -1.482438 0.558534 -0.161215 0.000000 0.000000 0.000000 -0.246346 -0.865891 0.668322 -1.627395 -5.437532 -4.543026 -17.892244 -25.539319 -70.023960 -15.987548 -84.063994 -23.957184 0.000000 0.000000 0.000000 0.617593 0.367822 -0.671524 -0.328026 4.064827 5.092528 3.345860 21.031464 56.391589 176.856479 77.977230 -170.501766 0.000000 0.000000 0.000000 
-1.213403 17.808578 4.837259 0.000000 0.000000 0.000000 -44.122933 -3.599631 -13.750416 -89.336156 6.806873 9.410126 41.580402 3.411714 -0.724111 -6.861515 3.674778 -4.108144 0.000000 0.000000 0.000000 -35.841404 5.582460 4.908347 -73.897941 1.514531 -10.747716 33.624072 -6.083620 10.865400 -14.174234 -15.202596 24.602973 0.000000 0.000000 0.000000 -25.557926 -11.553210 0.835452 -73.261634 12.454395 18.088457 0.438890 -0.640458 -1.419708 -1.606204 1.075377 -0.073695 0.000000 0.000000 0.000000 1.990618 -0.488917 -0.145492 -1.330292 0.521182 -0.202928 0.000000 0.000000 0.000000 -0.462161 -0.923287 0.712390 -1.246876 -6.239677 -3.434487 -17.560451 -24.955595 -69.297282 -13.793638 -86.920250 -21.812216 0.000000 0.000000 0.000000 0.376342 0.688645 -0.432908 -0.575835 4.248623 6.316770 1.508947 20.941287 57.243173 175.035195 79.694162 -168.120243 0.000000 0.000000 0.000000 
-1.682122 16.144531 3.879143 0.000000 0.000000 0.000000 -45.248197 -4.621950 -14.314302 -90.197354 6.527028 9.321811 42.577299 3.046402 -0.797376 -6.256146 3.298699 -4.490028 0.000000 0.000000 0.000000 -35.830834 6.899611 6.694875 -73.775482 1.143620 -9.560674 35.022451 -5.290367 10.483686 -13.193123 -14.190161 24.474306 0.000000 0.000000 0.000000 -24.550096 -11.531770 1.174250 -71.207727 10.606672 19.196749 0.242285 -0.222111 -1.702250 -1.362144 0.518592 -0.243805 0.000000 0.000000 0.000000 2.474998 -0.701398 -0.070990 -1.307351 0.415605 -0.214407 0.000000 0.000000 0.000000 -0.573565 -0.839260 0.892544 -1.254310 -6.532512 -2.525404 -13.170917 -25.504336 -66.793158 0.981701 -86.275220 -7.581209 0.000000 0.000000 0.000000 0.316591 0.885951 -0.658279 -0.604321 3.542339 5.662387 0.927147 18.325799 57.461029 178.477050 80.069399 -171.897229 0.000000 0.000000 0.000000 
0.261645 14.838585 4.144634 0.000000 0.000000 0.000000 -46.680665 -4.219362 -15.158876 -91.445824 6.840378 8.910458 42.777311 2.681553 -1.225177 -5.929142 3.166325 -5.445884 0.000000 0.000000 0.000000 -37.077559 4.158041 5.555901 -75.260543 0.855054 -10.172989 37.701784 -5.145444 11.240731 -11.033015 -14.171184 25.727072 0.000000 0.000000 0.000000 -25.260116 -15.159786 0.300805 -68.394045 14.231483 22.773434 0.644245 -0.401295 -1.342579 -1.922330 0.567066 -0.341822 0.000000 0.000000 0.000000 2.327190 -0.670890 -0.163692 -1.417366 0.446572 -0.126225 0.000000 0.000000 0.000000 -0.311394 -1.175021 0.939903 -1.271213 -5.816779 -2.102307 -10.972401 -26.201514 -65.710887 73.780154 -88.959956 65.765159 0.000000 0.000000 0.000000 0.710180 1.176198 -0.821668 -0.857576 3.605495 6.597548 0.662737 15.490287 58.116283 -177.029638 78.326895 -176.622490 0.000000 0.000000 0.000000 
0.034130 16.526215 4.393606 0.000000 0.000000 0.000000 -46.770236 -3.686190 -15.180592 -91.567565 7.029150 8.809588 43.374713 2.726420 -1.476530 -5.618253 3.327999 -5.811344 0.000000 0.000000 0.000000 -35.865856 4.351500 5.880321 -73.985647 0.589069 -9.794208 39.328397 -4.395790 11.251449 -9.545287 -13.339490 26.346475 0.000000 0.000000 0.000000 -24.988665 -14.798913 0.859872 -71.118498 15.528626 23.669408 0.806517 -0.068114 -1.444480 -1.769704 0.826717 -0.146979 0.000000 0.000000 0.000000 2.567708 -0.597956 -0.132902 -1.330074 0.434365 -0.125516 0.000000 0.000000 0.000000 -0.452187 -1.149640 1.182969 -1.114073 -6.330125 -0.865297 -11.806127 -25.075784 -63.460845 59.589692 -88.639579 52.550898 0.000000 0.000000 0.000000 0.613715 1.258617 -0.836057 -0.563364 3.967314 6.384735 1.016387 16.283490 58.624402 -177.387799 78.646500 -175.803427 0.000000 0.000000 0.000000 
